<?xml version="1.0" standalone="no"?>
<!DOCTYPE svg PUBLIC "-//W3C//DTD SVG 20010904//EN"
 "http://www.w3.org/TR/2001/REC-SVG-20010904/DTD/svg10.dtd">
<svg version="1.0" xmlns="http://www.w3.org/2000/svg"
 width="260.000000pt" height="260.000000pt" viewBox="0 0 260.000000 260.000000"
 preserveAspectRatio="xMidYMid meet">
<metadata>
Created by potrace 1.11, written by Peter Selinger 2001-2013
</metadata>
<g transform="translate(0.000000,260.000000) scale(0.100000,-0.100000)"
fill="#000000" stroke="none">
<path d="M1170 2424 c-388 -59 -671 -246 -862 -569 -78 -131 -124 -284 -149
-486 -10 -84 -9 -107 10 -219 45 -256 139 -452 300 -623 362 -384 954 -468
1406 -199 281 167 480 449 540 765 19 103 19 311 0 414 -102 535 -583 929
-1125 922 -52 -1 -106 -3 -120 -5z m110 -193 l0 -159 -82 -7 c-418 -34 -712
-169 -928 -425 l-21 -25 6 25 c13 50 96 213 146 285 62 90 190 214 286 278
164 109 376 180 556 186 l37 1 0 -159z m287 124 c298 -76 554 -276 699 -549
39 -74 94 -213 94 -239 0 -5 -18 18 -40 51 -82 123 -247 252 -413 324 -156 68
-297 101 -529 124 l-58 5 0 161 0 160 78 -7 c42 -4 119 -18 169 -30z m-327
-695 l0 -320 -320 0 -320 0 0 23 c0 50 33 157 72 237 34 68 59 102 128 170
124 125 235 178 433 209 4 0 7 -143 7 -319z m260 284 c248 -77 435 -298 475
-561 l7 -43 -326 0 -326 0 0 313 c0 173 3 316 6 319 9 10 85 -3 164 -28z
m-777 -119 c-108 -113 -192 -284 -208 -426 l-7 -59 -130 0 -131 0 6 45 c15
107 107 243 229 340 73 58 263 165 293 165 6 0 -18 -29 -52 -65z m1165 29 c63
-28 202 -119 254 -166 91 -83 169 -212 184 -306 l7 -42 -131 0 -131 0 -6 48
c-22 164 -104 331 -222 449 -60 60 -55 61 45 17z m-1378 -626 c1 -45 30 -164
57 -228 37 -91 100 -185 167 -252 32 -32 54 -58 49 -58 -5 0 -58 24 -118 54
-181 90 -306 205 -372 344 -20 40 -38 93 -41 117 l-5 45 132 0 c129 0 131 0
131 -22z m730 -298 l0 -320 -28 0 c-75 0 -214 52 -314 117 -154 101 -269 285
-294 471 l-7 52 322 0 321 0 0 -320z m735 268 c-30 -219 -174 -416 -378 -520
-63 -31 -191 -68 -239 -68 l-28 0 0 313 c0 173 3 317 7 320 3 4 150 7 326 7
l319 0 -7 -52z m355 29 c0 -34 -34 -128 -67 -184 -40 -69 -142 -173 -223 -227
-62 -42 -226 -126 -245 -126 -4 0 26 35 66 78 112 119 181 266 205 435 l6 47
129 0 c129 0 129 0 129 -23z m0 -292 c-11 -32 -40 -96 -64 -141 -173 -324
-504 -545 -868 -579 l-78 -7 0 156 0 156 56 0 c31 0 103 7 161 16 326 48 616
201 763 403 24 33 45 59 47 57 2 -1 -6 -29 -17 -61z m-1858 -182 c193 -133
436 -213 696 -231 l107 -7 3 -153 3 -152 -28 0 c-16 0 -59 5 -98 10 -370 53
-677 273 -842 605 -66 131 -64 138 15 54 39 -42 104 -98 144 -126z"/>
</g>
</svg>
