<?xml version="1.0" encoding="UTF-8"?>
<svg width="45px" height="63px" viewBox="0 0 45 63" version="1.1" xmlns="http://www.w3.org/2000/svg" xmlns:xlink="http://www.w3.org/1999/xlink">
    <!-- Generator: Sketch 64 (93537) - https://sketch.com -->
    <title>dgfk-logo</title>
    <desc>Created with Sketch.</desc>
    <g id="Page-1" stroke="none" stroke-width="1" fill="none" fill-rule="evenodd">
        <g id="Desktop-HD-Copy" transform="translate(-24.000000, -24.000000)">
            <g id="Logo" transform="translate(25.000000, 25.000000)">
                <path d="M21.7607418,1.8 L21.7607418,41.4 M1.8,21.600096 C1.8,10.6649692 10.7321281,1.8 21.751258,1.8 C32.7692267,1.8 41.7,10.6649692 41.7,21.600096 C41.7,32.5350308 32.7690332,41.4 21.751258,41.4 C10.7321281,41.4 1.8,32.5350308 1.8,21.600096 Z" id="Shape" stroke="#217846" stroke-width="0.5"></path>
                <rect id="Rectangle" stroke="#217846" stroke-width="0.69648" x="0" y="0" width="43.2" height="61.2"></rect>
                <path d="M21.6094833,8.7 L21.6094833,34.7998081 M41.1,21.7500959 L2.1,21.7500959 M2.1,21.7500959 C2.1,14.5426135 10.831222,8.7 21.6,8.7 C32.3709069,8.7 41.1,14.5424217 41.1,21.7500959 C41.1,28.9573865 32.3709069,34.8 21.6,34.8 C10.831222,34.8 2.1,28.9573865 2.1,21.7500959 Z M8.43562269,21.7500959 C8.43562269,14.5426135 14.3292072,8.7 21.6,8.7 C28.8707928,8.7 34.7665062,14.5424217 34.7665062,21.7500959 C34.7665062,28.9573865 28.8705993,34.8 21.6,34.8 C14.3294007,34.8 8.43562269,28.9573865 8.43562269,21.7500959 Z" id="Shape" stroke="#217846" stroke-width="1.39299"></path>
                <path d="M29.4,43.5959266 L29.4,46.2874745 C29.4,46.2874745 28.9404957,45.8976775 28.336681,45.9115643 C27.9774569,45.9187006 27.5699353,46.0809072 27.5309483,46.4074418 L27.5309483,49.7559164 L29.355194,49.7559164 L29.355194,52.3936527 L27.5309483,52.3936527 L27.5309483,60 L24.8782759,60 L24.8782759,57.4153039 C24.8782759,57.4153039 25.569375,56.5516169 25.7751724,55.9562168 C26.042069,55.180673 26.2759914,53.7954564 26.2511638,53.4324687 L26.2511638,50.5374394 L23.1,50.5374394 L23.1,49.7561093 L24.8782759,49.7561093 L24.8782759,46.4076347 C24.8782759,46.4076347 24.9599353,44.944883 25.6946767,44.256325 C26.4284483,43.5668027 27.2933405,43.1743054 27.8156897,43.2013077 C28.3364871,43.2292743 28.9426293,43.1388167 29.4,43.5959266" id="Path" fill="#217846" fill-rule="nonzero"></path>
                <polygon id="Path" fill="#217846" fill-rule="nonzero" points="29.7 43.5 32.3486952 43.5 32.3486952 48.5626273 37.6706931 43.5 41.526705 43.5 33.6530855 51.0410081 42.3 60 38.6090713 60 32.3486952 53.5545486 32.3486952 60 29.7 60"></polygon>
                <path d="M7.81162174,59.7 L1.2,59.7 L1.2,43.5 L7.46383264,43.5 C8.05264857,43.6217447 10.3723885,43.677189 12.0278723,45.2666559 C13.6835471,46.8549596 14.3489492,48.171664 14.3944043,51.0733764 C14.4385225,53.9737318 14.2607127,55.6552827 12.4306659,57.6972213 C10.6854178,59.6433926 8.14222193,59.6905008 7.81162174,59.7 M10.8202553,55.5620355 C11.7604891,54.4271729 11.8032704,53.2011955 11.8032704,51.1181583 C11.8032704,49.0349273 11.3576955,48.1658481 10.1941967,47.2174798 C9.03088898,46.2691115 7.64985493,46.212504 7.2483982,46.1712116 L3.80946871,46.1712116 L3.80946871,57.0665913 L7.97224263,57.0665913 C9.2148104,56.9130533 9.88021251,56.6992246 10.8202553,55.5620355" id="Shape" fill="#217846"></path>
                <path d="M13.0101957,45.2655183 C12.6467159,44.8857132 12,44.3792406 12,44.3792406 C12.9577799,43.8149758 14.8422715,42.9 17.1422776,42.9 C19.6875896,42.9 22.3973921,43.5450154 24.6,46.6095807 L22.533292,48.3 C22.533292,48.3 21.5299579,46.90151 20.3678516,46.3178493 C19.2055547,45.735574 19.0616495,45.6342398 17.095961,45.6342398 C15.5783802,45.6342398 14.3232596,46.1407125 13.8822043,46.3540683 C13.8822043,46.3542662 13.3853024,45.6562088 13.0101957,45.2655183" id="Path" fill="#217846" fill-rule="nonzero"></path>
                <path d="M9.5781833,56.1 C10.682705,55.3994686 11.1878707,54.6907226 11.4,53.3047518 C11.3031933,52.9404449 11.1303099,52.1306405 11.1303099,51.3741354 C11.1303099,50.7167783 11.2687777,50.0126172 11.3510935,49.7018006 C11.1474172,48.9372719 10.5502751,48.0330955 9.31936136,47.4 C9.02169599,48.0015744 8.4,49.5971125 8.4,51.3741354 C8.39979878,53.4957884 9.2163156,55.4401594 9.5781833,56.1" id="Path" fill="#217846" fill-rule="nonzero"></path>
                <path d="M13.8405868,56.8373907 C14.448814,57.1166749 15.8705021,57.6206685 17.3483371,57.6206685 C19.1881574,57.6206685 20.8817655,56.9888801 21.6873696,56.1310229 C22.4941234,55.2745253 22.6949495,54.2119632 22.7754333,53.679614 L18.5193757,53.679614 L18.5193757,51 L25.5,51 L25.4906102,53.5992081 C25.4906102,53.5992081 25.4358046,56.1986105 23.2985777,58.2819779 C21.1646084,60.3630146 16.9890346,60.2991172 16.9890346,60.2991172 C14.8749947,60.3346589 12.7141975,59.2876343 12,58.8568606 C12.4606737,58.49853 13.1493847,57.871597 13.8405868,56.8373907" id="Path" fill="#217846" fill-rule="nonzero"></path>
            </g>
        </g>
    </g>
</svg>